<?xml version="1.0" encoding="utf-8"?>
<!-- Generator: Adobe Illustrator 16.0.0, SVG Export Plug-In . SVG Version: 6.00 Build 0)  -->
<!DOCTYPE svg PUBLIC "-//W3C//DTD SVG 1.1//EN" "http://www.w3.org/Graphics/SVG/1.1/DTD/svg11.dtd">
<svg version="1.1" id="Layer_1" xmlns="http://www.w3.org/2000/svg" xmlns:xlink="http://www.w3.org/1999/xlink" x="0px" y="0px"
	 width="147.213px" height="175px" viewBox="8.412 10 147.213 175" enable-background="new 8.412 10 147.213 175"
	 xml:space="preserve">
<g id="Layer_2" display="none">
	<circle display="inline" fill="#FFFFFF" cx="42.36" cy="12.807" r="5"/>
	
		<rect x="-30.167" y="-60.034" display="inline" fill="#633441" stroke="#FFFFFF" stroke-miterlimit="10" width="211" height="268.667"/>
</g>
<g id="Layer_1_1_" display="none" opacity="0.6">
	<g id="WUgHtX_1_" display="inline">
	</g>
</g>
<g id="Layer_3">
	<path display="none" fill="#B5B5B5" d="M133.895,34.498c0-5.124-1.062-6.185-6.186-6.185H92.244H70.693H35.228
		c-5.123,0-6.185,1.062-6.185,6.185l-7.731,74.631v41.178c0,5.123,1.062,6.185,6.185,6.185h4.51v7.94
		c0,4.269,3.461,4.639,7.731,4.639c4.27,0,7.731-0.37,7.731-4.639v-7.94h29.217h9.566h29.216v7.94c0,4.269,3.463,4.639,7.731,4.639
		c4.271,0,7.73-0.37,7.73-4.639v-7.94h4.511c5.123,0,6.185-1.062,6.185-6.185v-41.951L133.895,34.498z M51.159,36.668h60.619
		c2.038,0,3.689,2.504,3.689,4.639c0,2.134-1.653,4.639-3.689,4.639H51.159c-2.038,0-3.69-2.504-3.69-4.639
		C47.469,39.172,49.122,36.668,51.159,36.668z M39.738,137.808c-4.27,0-7.731-3.462-7.731-7.73c0-4.27,3.461-7.731,7.731-7.731
		c4.27,0,7.731,3.462,7.731,7.731C47.469,134.346,44.007,137.808,39.738,137.808z M104.209,137.034H58.729
		c-1.068,0-1.933-0.091-1.933-1.159c0-1.067,0.865-1.16,1.933-1.16h45.478c1.069,0,1.933,0.093,1.933,1.16
		C106.14,136.943,105.276,137.034,104.209,137.034z M104.209,131.236H58.729c-1.068,0-1.933-0.092-1.933-1.159
		c0-1.068,0.865-1.16,1.933-1.16h45.478c1.069,0,1.933,0.092,1.933,1.16C106.14,131.145,105.276,131.236,104.209,131.236z
		 M104.209,125.438H58.729c-1.068,0-1.933-0.092-1.933-1.16c0-1.067,0.865-1.159,1.933-1.159h45.478
		c1.069,0,1.933,0.092,1.933,1.159C106.14,125.347,105.276,125.438,104.209,125.438z M123.199,137.808
		c-4.269,0-7.731-3.462-7.731-7.73c0-4.27,3.463-7.731,7.731-7.731c4.271,0,7.73,3.462,7.73,7.731
		C130.93,134.346,127.47,137.808,123.199,137.808z M124.745,108.355H38.191c-5.124,0-6.185-1.062-6.185-6.185l4.639-40.898
		c0-5.124,1.061-6.185,6.185-6.185h78.05c5.124,0,6.185,1.062,6.185,6.185l3.865,40.898
		C130.93,107.294,129.869,108.355,124.745,108.355z"/>
	<path fill="#D2D3D4" d="M133.895,33.725c0-5.123-1.062-6.185-6.186-6.185H92.244H70.693H35.228c-5.123,0-6.185,1.062-6.185,6.185
		l-7.731,74.631v41.178c0,5.123,1.062,6.185,6.185,6.185h4.51v7.94c0,4.27,3.461,4.639,7.731,4.639c4.27,0,7.731-0.369,7.731-4.639
		v-7.94h29.217h9.566h29.216v7.94c0,4.27,3.463,4.639,7.731,4.639c4.271,0,7.73-0.369,7.73-4.639v-7.94h4.511
		c5.123,0,6.185-1.062,6.185-6.185v-41.951L133.895,33.725z M51.159,35.895h60.619c2.038,0,3.689,2.504,3.689,4.639
		c0,2.134-1.653,4.638-3.689,4.638H51.159c-2.038,0-3.69-2.504-3.69-4.638C47.469,38.399,49.122,35.895,51.159,35.895z
		 M39.738,137.034c-4.27,0-7.731-3.461-7.731-7.73s3.461-7.731,7.731-7.731c4.27,0,7.731,3.462,7.731,7.731
		S44.007,137.034,39.738,137.034z M104.209,136.262H58.729c-1.068,0-1.933-0.092-1.933-1.16c0-1.067,0.865-1.159,1.933-1.159h45.478
		c1.069,0,1.933,0.092,1.933,1.159C106.14,136.17,105.276,136.262,104.209,136.262z M104.209,130.463H58.729
		c-1.068,0-1.933-0.091-1.933-1.159c0-1.067,0.865-1.16,1.933-1.16h45.478c1.069,0,1.933,0.093,1.933,1.16
		C106.14,130.372,105.276,130.463,104.209,130.463z M104.209,124.665H58.729c-1.068,0-1.933-0.092-1.933-1.159
		c0-1.068,0.865-1.16,1.933-1.16h45.478c1.069,0,1.933,0.092,1.933,1.16C106.14,124.573,105.276,124.665,104.209,124.665z
		 M123.199,137.034c-4.269,0-7.731-3.461-7.731-7.73s3.463-7.731,7.731-7.731c4.271,0,7.73,3.462,7.73,7.731
		S127.47,137.034,123.199,137.034z M124.745,107.582H38.191c-5.124,0-6.185-1.062-6.185-6.185l4.639-40.898
		c0-5.123,1.061-6.185,6.185-6.185h78.05c5.124,0,6.185,1.062,6.185,6.185l3.865,40.898
		C130.93,106.521,129.869,107.582,124.745,107.582z"/>
</g>
</svg>
