<?xml version="1.0" encoding="utf-8"?>
<!-- Generator: Adobe Illustrator 16.0.0, SVG Export Plug-In . SVG Version: 6.00 Build 0)  -->
<!DOCTYPE svg PUBLIC "-//W3C//DTD SVG 1.1//EN" "http://www.w3.org/Graphics/SVG/1.1/DTD/svg11.dtd">
<svg version="1.1" id="Layer_1" xmlns="http://www.w3.org/2000/svg" xmlns:xlink="http://www.w3.org/1999/xlink" x="0px" y="0px"
	 width="32px" height="64px" viewBox="4 8 32 64" enable-background="new 4 8 32 64" xml:space="preserve">
<g>
	<g>
		<polygon fill="#FFFFFF" points="24.861,49.853 20,40 15.138,49.853 4.266,51.431 12.133,59.099 10.275,69.927 20,64.817 
			29.727,69.927 27.867,59.099 35.734,51.431 		"/>
	</g>
</g>
<g>
	<g>
		<g>
			<path fill="#FFFFFF" d="M20,12.521l3.066,6.217l0.467,0.943l1.041,0.151l6.861,0.996l-4.965,4.839L25.717,26.4l0.18,1.037
				l1.172,6.835l-6.14-3.226l-0.93-0.489l-0.93,0.489l-6.139,3.226l1.173-6.835l0.178-1.037l-0.753-0.734l-4.964-4.839l6.861-0.996
				l1.041-0.151l0.465-0.943L20,12.521 M20,8l-4.862,9.852L4.266,19.431l7.867,7.668l-1.858,10.828L20,32.817l9.727,5.11
				l-1.859-10.828l7.867-7.668l-10.873-1.579L20,8L20,8z"/>
		</g>
	</g>
</g>
</svg>
