<?xml version="1.0" encoding="utf-8"?>
<!-- Generator: Adobe Illustrator 16.0.0, SVG Export Plug-In . SVG Version: 6.00 Build 0)  -->
<!DOCTYPE svg PUBLIC "-//W3C//DTD SVG 1.1//EN" "http://www.w3.org/Graphics/SVG/1.1/DTD/svg11.dtd">
<svg version="1.1" id="Layer_1" xmlns="http://www.w3.org/2000/svg" xmlns:xlink="http://www.w3.org/1999/xlink" x="0px" y="0px"
	 width="16px" height="16px" viewBox="0 0 16 16" enable-background="new 0 0 16 16" xml:space="preserve">
<g>
	<path fill="#555555" d="M8,0.04c-2.037,0-4.075,0.777-5.63,2.332c-3.108,3.109-3.108,8.15,0,11.258
		c1.556,1.555,3.593,2.332,5.63,2.332s4.074-0.777,5.631-2.332c3.107-3.108,3.107-8.149,0-11.258C12.074,0.817,10.037,0.04,8,0.04z
		 M12.877,12.875c-1.303,1.303-3.035,2.02-4.877,2.02c-1.841,0-3.573-0.717-4.875-2.02C1.822,11.574,1.105,9.842,1.105,8
		c0-1.842,0.717-3.573,2.02-4.875C4.426,1.822,6.158,1.105,8,1.105c1.842,0,3.572,0.717,4.877,2.02
		C14.178,4.426,14.895,6.159,14.895,8C14.895,9.841,14.178,11.574,12.877,12.875z M12.162,7.432H8.498V2.692
		c0-0.294-0.238-0.533-0.533-0.533c-0.293,0-0.533,0.239-0.533,0.533v5.269v0.001v0.002c0,0.294,0.239,0.533,0.533,0.533h4.198
		c0.295,0,0.533-0.239,0.533-0.533C12.695,7.67,12.457,7.432,12.162,7.432z"/>
</g>
</svg>
