<?xml version="1.0" encoding="utf-8"?>
<!-- Generator: Adobe Illustrator 16.0.0, SVG Export Plug-In . SVG Version: 6.00 Build 0)  -->
<!DOCTYPE svg PUBLIC "-//W3C//DTD SVG 1.1//EN" "http://www.w3.org/Graphics/SVG/1.1/DTD/svg11.dtd">
<svg version="1.1" xmlns="http://www.w3.org/2000/svg" xmlns:xlink="http://www.w3.org/1999/xlink" x="0px" y="0px" width="32px"
	 height="64px" viewBox="0 0 32 64" enable-background="new 0 0 32 64" xml:space="preserve">
<g id="Layer_3">
	<g>
		<path fill="#777777" d="M16.253,6c5.514,0,9.999,4.486,9.999,10s-4.485,10-9.999,10c-5.514,0-10-4.486-10-10S10.739,6,16.253,6
			 M16.253,4c-6.627,0-12,5.373-12,12s5.373,12,12,12c6.628,0,11.999-5.373,11.999-12S22.881,4,16.253,4L16.253,4z"/>
	</g>
	<path fill="#777777" stroke="#777777" stroke-width="0.5" stroke-miterlimit="10" d="M18.117,21.084
		c-0.191,0-0.384-0.073-0.53-0.22c-0.293-0.292-0.293-0.768,0-1.061l3.07-3.072H9.951c-0.414,0-0.75-0.336-0.75-0.75
		s0.336-0.75,0.75-0.75h10.705l-3.035-3.036c-0.146-0.146-0.22-0.338-0.22-0.53s0.073-0.384,0.22-0.53
		c0.294-0.294,0.768-0.292,1.061,0l4.315,4.316c0.001,0,0.001,0.001,0.002,0.001v0C23,15.454,23,15.455,23,15.455
		c0,0,0.001,0,0.001,0c0,0.001,0.002,0.002,0.002,0.002c0,0,0,0,0.001,0c0.128,0.131,0.198,0.298,0.211,0.468
		c0.004,0.052,0.002,0.104-0.005,0.156c-0.019,0.14-0.077,0.276-0.176,0.39c0,0,0,0-0.001,0.001
		c-0.013,0.015-0.025,0.029-0.039,0.042l-4.347,4.349C18.501,21.011,18.31,21.084,18.117,21.084z"/>
</g>
<g id="Layer_4">
	<g>
		<path fill="#FFFFFF" d="M16.253,36.133c-6.627,0-12,5.372-12,12c0,6.627,5.373,12,12,12c6.628,0,11.999-5.373,11.999-12
			C28.252,41.505,22.881,36.133,16.253,36.133z M23.458,48.12c-0.026,0.193-0.107,0.373-0.235,0.521l-0.059,0.062l-4.34,4.343
			c-0.188,0.188-0.44,0.293-0.707,0.293s-0.519-0.104-0.707-0.293s-0.293-0.44-0.293-0.707s0.104-0.519,0.293-0.707l2.644-2.646
			H9.951c-0.552,0-1-0.448-1-1s0.448-1,1-1h10.102l-2.608-2.609c-0.188-0.188-0.293-0.44-0.293-0.707s0.104-0.519,0.293-0.707
			c0.377-0.378,1.036-0.378,1.414,0l4.243,4.244h0.052l0.034,0.067l0.065,0.033v0.061c0.122,0.155,0.196,0.345,0.211,0.544
			C23.469,47.979,23.467,48.049,23.458,48.12z"/>
	</g>
</g>
</svg>
