<?xml version="1.0" encoding="utf-8"?>
<!-- Generator: Adobe Illustrator 16.0.0, SVG Export Plug-In . SVG Version: 6.00 Build 0)  -->
<!DOCTYPE svg PUBLIC "-//W3C//DTD SVG 1.1//EN" "http://www.w3.org/Graphics/SVG/1.1/DTD/svg11.dtd">
<svg version="1.1" id="Layer_1" xmlns="http://www.w3.org/2000/svg" xmlns:xlink="http://www.w3.org/1999/xlink" x="0px" y="0px"
	 width="27px" height="40px" viewBox="0 0 27 40" enable-background="new 0 0 27 40" xml:space="preserve">
<g id="Layer_2" display="none">
	<g display="inline">
		<path fill="#006ABA" d="M13.472,39.666C11.252,39.665,0.25,20.661,0.25,13.471c0-7.29,5.931-13.221,13.221-13.221
			c7.291,0,13.22,5.931,13.22,13.221C26.691,21.352,15.527,39.666,13.472,39.666L13.472,39.666z"/>
		<path fill="#009EED" d="M13.471,0.5c7.152,0,12.97,5.819,12.97,12.971c0,3.783-2.945,10.63-5.703,15.777
			c-3.555,6.635-6.504,10.168-7.266,10.168c-0.725-0.036-3.719-3.699-7.234-10.227C3.464,24.041,0.5,17.207,0.5,13.471
			C0.5,6.319,6.319,0.5,13.471,0.5 M13.471,0C6.031,0,0,6.031,0,13.471s11.051,26.444,13.471,26.445
			c2.593,0.001,13.47-19.004,13.47-26.445C26.941,6.031,20.911,0,13.471,0L13.471,0z"/>
	</g>
	<g>
		<path display="inline" fill="#EFEFEF" d="M13.5,0.5c7.167,0,13,5.832,13,13c0,3.791-2.952,10.652-5.716,15.811
			C17.223,35.959,14.266,39.5,13.501,39.5c-0.727-0.036-3.726-3.705-7.25-10.246c-2.779-5.161-5.75-12.011-5.75-15.754
			C0.501,6.332,6.333,0.5,13.5,0.5 M13.5,0C6.044,0,0,6.044,0,13.5S11.074,40,13.5,40C16.1,40.001,27,20.956,27,13.5
			S20.956,0,13.5,0L13.5,0z"/>
	</g>
	<path display="inline" fill="#FFFFFF" d="M22.344,13.593c0,4.839-3.906,8.755-8.745,8.755c-4.839,0-8.755-3.917-8.755-8.755
		c0-4.838,3.916-8.754,8.755-8.754C18.438,4.839,22.344,8.754,22.344,13.593z"/>
	<g id="Layer_3" display="inline">
		<polygon points="17.009,9.248 14.49,13.499 16.927,17.751 9.99,13.486 		"/>
	</g>
</g>
<g id="Layer_1_1_" display="none">
</g>
<g id="_x37_p7joE_1_" display="none">
	
		<image display="inline" overflow="visible" width="872" height="828" id="_x37_p7joE_2_" xlink:href="2F6D90A25BD8BB17.jpg"  transform="matrix(0.5 0 0 0.5 -246.5 -84.6436)">
	</image>
</g>
<g opacity="0.4">
	<path d="M9.516,38.002c0-1.105,1.791-2.002,4.002-2.002c2.207,0,3.998,0.896,3.998,2.002c0,1.102-1.791,1.998-3.998,1.998
		C11.307,40,9.516,39.104,9.516,38.002z"/>
</g>
<path display="none" fill="none" stroke="#DBDBDB" stroke-miterlimit="10" d="M12.468,37.5V21.787h2V37.5c0,0.553-0.447,1-1,1
	C12.916,38.5,12.468,38.053,12.468,37.5z"/>
<circle fill="none" stroke="#DBDBDB" stroke-miterlimit="10" cx="13.594" cy="13.593" r="8.742"/>
<g display="none">
	<rect x="12.468" y="21.787" display="inline" fill="#777777" width="2" height="15.713"/>
</g>
<g>
	<rect x="12.718" y="20.354" fill="#777777" width="1.5" height="17.916"/>
	<path fill="#DBDBDB" d="M13.968,20.604v17.416h-1V20.604H13.968 M14.468,20.104h-0.5h-1h-0.5v0.5v17.416v0.5h0.5h1h0.5v-0.5V20.604
		V20.104L14.468,20.104z"/>
</g>
<g>
	<rect x="12.968" y="20" fill="#555555" width="1" height="18"/>
</g>
<circle fill="#0049B2" cx="13.594" cy="13.593" r="8.742"/>
<path fill="#CF1C20" d="M21.79,16.64c-0.213,0.572-0.484,1.116-0.807,1.624c-1.302,2.058-3.439,3.533-5.937,3.951
	c-0.471,0.078-0.957,0.121-1.453,0.121c-0.477,0-0.946-0.039-1.402-0.113c-2.52-0.406-4.678-1.887-5.99-3.959
	c-0.322-0.509-0.594-1.054-0.807-1.627L21.79,16.64z"/>
</svg>
