<?xml version="1.0" encoding="utf-8"?>
<!-- Generator: Adobe Illustrator 16.0.0, SVG Export Plug-In . SVG Version: 6.00 Build 0)  -->
<!DOCTYPE svg PUBLIC "-//W3C//DTD SVG 1.1//EN" "http://www.w3.org/Graphics/SVG/1.1/DTD/svg11.dtd">
<svg version="1.1" id="Layer_1" xmlns="http://www.w3.org/2000/svg" xmlns:xlink="http://www.w3.org/1999/xlink" x="0px" y="0px"
	 width="40px" height="80px" viewBox="-4 -4 40 80" enable-background="new -4 -4 40 80" xml:space="preserve">
<path display="none" fill="#2B2B2B" d="M31.618,12.511C30.026,5.353,23.638,0,16,0C7.574,0,0.668,6.515,0.046,14.782L31.618,12.511z
	 M2.055,14.75C2.689,7.614,8.701,2,16,2c6.756,0,12.407,4.808,13.716,11.182L2.055,14.75z"/>
<g id="Layer_2">
</g>
<g display="none">
	<path display="inline" fill="#2B2B2B" d="M16,42c7.72,0,14,6.28,14,14s-6.28,14-14,14S2,63.72,2,56S8.28,42,16,42 M16,40
		C7.164,40,0,47.163,0,56s7.164,16,16,16c8.837,0,16-7.163,16-16S24.837,40,16,40L16,40z"/>
</g>
<polyline display="none" fill="none" stroke="#2B2B2B" stroke-width="2" stroke-linecap="round" stroke-miterlimit="10" points="
	30.967,5 30.967,11 24.967,11 "/>
<path display="none" fill="#2B2B2B" d="M22.25,13"/>
<path display="none" fill="#2B2B2B" d="M31.723,13.019"/>
<path fill="#FFFFFF" d="M25.759,5.673c0.394,0,0.715,0.321,0.715,0.716v6.953c0,0.393-0.319,0.713-0.715,0.713h-7.076
	c-0.396,0-0.716-0.321-0.716-0.716c0-0.396,0.32-0.717,0.716-0.717h3.558h1.335l-0.763-1.096c-1.569-2.262-3.5-4.354-6.96-4.354
	c-4.876,0-8.843,3.959-8.843,8.826c0,4.876,3.967,8.844,8.843,8.844c3.828,0,7.205-2.446,8.403-6.087
	c0.101-0.305,0.385-0.51,0.705-0.51c0.079,0,0.156,0.012,0.231,0.037c0.389,0.127,0.602,0.549,0.474,0.938
	c-1.398,4.249-5.343,7.105-9.813,7.105c-5.694,0-10.326-4.632-10.326-10.326S10.158,5.673,15.852,5.673
	c4.344,0,6.065,2.128,7.583,4.005c0.126,0.155,0.249,0.308,0.37,0.454l1.236,1.498V9.688V6.39
	C25.041,5.995,25.362,5.673,25.759,5.673"/>
<g>
	<path fill="#FFFFFF" d="M15.996,46.812c4.968,0,9.01,4.043,9.01,9.012s-4.042,9.011-9.01,9.011c-4.969,0-9.011-4.042-9.011-9.011
		S11.027,46.812,15.996,46.812 M15.996,45.312c-5.806,0-10.511,4.706-10.511,10.512c0,5.805,4.706,10.511,10.511,10.511
		c5.804,0,10.51-4.706,10.51-10.511C26.506,50.018,21.8,45.312,15.996,45.312L15.996,45.312z"/>
</g>
<g>
	
		<line fill="none" stroke="#FFFFFF" stroke-width="1.5" stroke-linecap="round" stroke-miterlimit="10" x1="11.617" y1="51.444" x2="20.374" y2="60.202"/>
	
		<line fill="none" stroke="#FFFFFF" stroke-width="1.5" stroke-linecap="round" stroke-miterlimit="10" x1="11.617" y1="60.202" x2="20.374" y2="51.444"/>
</g>
</svg>
