<?xml version="1.0" encoding="utf-8"?>
<!-- Generator: Adobe Illustrator 16.0.0, SVG Export Plug-In . SVG Version: 6.00 Build 0)  -->
<!DOCTYPE svg PUBLIC "-//W3C//DTD SVG 1.1//EN" "http://www.w3.org/Graphics/SVG/1.1/DTD/svg11.dtd">
<svg version="1.1" id="Layer_1" xmlns="http://www.w3.org/2000/svg" xmlns:xlink="http://www.w3.org/1999/xlink" x="0px" y="0px"
	 width="40px" height="72px" viewBox="0 0 40 72" enable-background="new 0 0 40 72" xml:space="preserve">
<g>
	<path fill="#2B2B2B" d="M36,16c0-8.836-7.164-16-16-16S4,7.164,4,16s7.164,16,16,16S36,24.836,36,16z M6,16C6,8.28,12.279,2,20,2
		c7.721,0,14,6.28,14,14c0,7.721-6.279,14-14,14C12.279,30,6,23.721,6,16z M27.848,22.471l-2.324-3.723l-1.548-2.486
		c-0.134,1.996-1.716,3.58-3.713,3.713l2.483,1.549l3.725,2.324c0.395,0.248,0.907,0.19,1.235-0.14
		C28.038,23.376,28.094,22.859,27.848,22.471z M19.737,12.026l-2.485-1.55l-3.725-2.324c-0.394-0.248-0.907-0.19-1.235,0.14
		C12.1,8.486,12,8.742,12,9c0,0.184,0.05,0.368,0.152,0.53l2.324,3.722l1.549,2.486C16.158,13.742,17.742,12.158,19.737,12.026z
		 M23.976,16.262C23.979,16.174,24,16.09,24,16c0-2.21-1.79-4-4-4c-0.09,0-0.174,0.02-0.263,0.026
		c-1.995,0.132-3.579,1.716-3.712,3.712C16.02,15.826,16,15.91,16,16c0,2.21,1.79,4,4,4c0.09,0,0.174-0.02,0.263-0.025
		C22.258,19.842,23.842,18.258,23.976,16.262z M20,14c1.103,0,2,0.898,2,2s-0.897,2-2,2c-1.102,0-2-0.898-2-2S18.898,14,20,14z"/>
</g>
<g>
	<path fill="#2B2B2B" d="M36,56c0-8.836-7.164-16-16-16S4,47.164,4,56s7.164,16,16,16S36,64.836,36,56z M26.471,63.848l-3.725-2.324
		l-2.483-1.549C20.174,59.98,20.09,60,20,60c-2.21,0-4-1.79-4-4c0-0.09,0.02-0.174,0.025-0.262l-1.549-2.486l-2.324-3.723
		C12.05,49.368,12,49.184,12,49c0-0.258,0.1-0.514,0.292-0.708c0.33-0.33,0.842-0.388,1.235-0.14l3.725,2.324l2.483,1.549
		C19.826,52.021,19.91,52,20,52c2.21,0,4,1.79,4,4c0,0.09-0.021,0.174-0.024,0.262l1.548,2.486l2.324,3.723
		c0.246,0.387,0.188,0.905-0.142,1.235C27.378,64.038,26.866,64.096,26.471,63.848z M20,54c-1.104,0-2,0.896-2,2s0.896,2,2,2
		c1.104,0,2-0.896,2-2S21.104,54,20,54z"/>
</g>
</svg>
