<?xml version="1.0" encoding="utf-8"?>
<!-- Generator: Adobe Illustrator 16.0.0, SVG Export Plug-In . SVG Version: 6.00 Build 0)  -->
<!DOCTYPE svg PUBLIC "-//W3C//DTD SVG 1.1//EN" "http://www.w3.org/Graphics/SVG/1.1/DTD/svg11.dtd">
<svg version="1.1" id="Layer_1" xmlns="http://www.w3.org/2000/svg" xmlns:xlink="http://www.w3.org/1999/xlink" x="0px" y="0px"
	 width="40px" height="80px" viewBox="-4 -4 40 80" enable-background="new -4 -4 40 80" xml:space="preserve">
<path display="none" fill="#2B2B2B" d="M31.618,12.511C30.026,5.353,23.638,0,16,0C7.574,0,0.668,6.515,0.046,14.782L31.618,12.511z
	 M2.055,14.75C2.689,7.614,8.701,2,16,2c6.756,0,12.407,4.808,13.716,11.182L2.055,14.75z"/>
<g id="Layer_2">
</g>
<g display="none">
	<path display="inline" fill="#2B2B2B" d="M16,42c7.72,0,14,6.28,14,14s-6.28,14-14,14S2,63.72,2,56S8.28,42,16,42 M16,40
		C7.164,40,0,47.163,0,56s7.164,16,16,16c8.837,0,16-7.163,16-16S24.837,40,16,40L16,40z"/>
</g>
<polyline display="none" fill="none" stroke="#2B2B2B" stroke-width="2" stroke-linecap="round" stroke-miterlimit="10" points="
	30.967,5 30.967,11 24.967,11 "/>
<path display="none" fill="#2B2B2B" d="M22.25,13"/>
<path display="none" fill="#2B2B2B" d="M31.723,13.019"/>
<g>
	<g>
		<path fill="#222222" d="M29.411,9.694c-0.714-1.529-1.701-2.96-2.963-4.222C23.545,2.57,19.74,1.118,15.934,1.118
			c-3.805,0-7.61,1.452-10.513,4.354c-2.106,2.106-3.448,4.688-4.026,7.399v0.397c0,0.554,0.449,1.003,1.003,1.003
			s1.003-0.449,1.003-1.003l0.023-0.359c0.552-2.264,1.715-4.341,3.404-6.032c2.431-2.431,5.665-3.771,9.105-3.771
			c3.438,0,6.671,1.34,9.106,3.771c1.081,1.08,1.946,2.318,2.572,3.662l1.544,1.236L29.411,9.694z"/>
	</g>
	<path fill="none" stroke="#222222" stroke-width="2" stroke-linecap="round" stroke-miterlimit="10" d="M30.898,8.694l-1.521,3.691
		l-3.698-1.522"/>
</g>
<g>
	<g>
		<path fill="#222222" d="M2.882,22.696c0.714,1.528,1.701,2.96,2.963,4.222c2.903,2.902,6.708,4.354,10.514,4.354
			c3.805,0,7.609-1.452,10.513-4.354c2.106-2.106,3.448-4.688,4.026-7.399v-0.397c0-0.554-0.449-1.003-1.004-1.003
			c-0.554,0-1.003,0.449-1.003,1.003l-0.023,0.359c-0.552,2.264-1.715,4.341-3.403,6.031c-2.432,2.432-5.665,3.771-9.105,3.771
			c-3.438,0-6.671-1.34-9.106-3.771c-1.081-1.079-1.946-2.317-2.572-3.661l-1.544-1.235L2.882,22.696z"/>
	</g>
	<path fill="none" stroke="#222222" stroke-width="2" stroke-linecap="round" stroke-miterlimit="10" d="M1.395,23.696l1.521-3.691
		l3.698,1.522"/>
</g>
</svg>
