<?xml version="1.0" encoding="utf-8"?>
<!-- Generator: Adobe Illustrator 16.0.0, SVG Export Plug-In . SVG Version: 6.00 Build 0)  -->
<!DOCTYPE svg PUBLIC "-//W3C//DTD SVG 1.1//EN" "http://www.w3.org/Graphics/SVG/1.1/DTD/svg11.dtd">
<svg version="1.1" xmlns="http://www.w3.org/2000/svg" xmlns:xlink="http://www.w3.org/1999/xlink" x="0px" y="0px"
	 width="155.625px" height="185px" viewBox="0 0 155.625 185" enable-background="new 0 0 155.625 185" xml:space="preserve">
<g id="Layer_2" display="none">
	<circle display="inline" fill="#FFFFFF" cx="42.36" cy="12.807" r="5"/>
	
		<rect x="-30.167" y="-60.034" display="inline" fill="#633441" stroke="#FFFFFF" stroke-miterlimit="10" width="211" height="268.667"/>
</g>
<g id="Layer_1" display="none" opacity="0.6">
	<g id="WUgHtX_1_" display="inline">
		
			<image overflow="visible" width="250" height="250" id="WUgHtX" xlink:href="6516CA5C3EAB0988.jpg"  transform="matrix(0.7003 0 0 0.7003 -8.1494 -3)">
		</image>
	</g>
</g>
<g id="Layer_3">
	<path display="none" fill="#B5B5B5" d="M145.625,9c0-6.627-1.373-8-8-8H91.75H63.875H18c-6.627,0-8,1.373-8,8L0,105.535v53.264
		c0,6.627,1.373,8,8,8h5.833v10.271c0,5.522,4.477,6,10,6s10-0.478,10-6v-10.271h37.792H84h37.791v10.271c0,5.522,4.478,6,10,6
		c5.523,0,10-0.478,10-6v-10.271h5.834c6.627,0,8-1.373,8-8v-54.264L145.625,9z M38.607,11.807h78.41c2.637,0,4.773,3.239,4.773,6
		s-2.137,6-4.773,6h-78.41c-2.636,0-4.774-3.239-4.774-6S35.971,11.807,38.607,11.807z M23.833,142.632c-5.523,0-10-4.478-10-10
		s4.477-10,10-10s10,4.478,10,10S29.356,142.632,23.833,142.632z M107.226,141.632H48.399c-1.381,0-2.5-0.119-2.5-1.5
		s1.119-1.5,2.5-1.5h58.826c1.382,0,2.5,0.119,2.5,1.5S108.607,141.632,107.226,141.632z M107.226,134.132H48.399
		c-1.381,0-2.5-0.119-2.5-1.5s1.119-1.5,2.5-1.5h58.826c1.382,0,2.5,0.119,2.5,1.5S108.607,134.132,107.226,134.132z
		 M107.226,126.632H48.399c-1.381,0-2.5-0.119-2.5-1.5s1.119-1.5,2.5-1.5h58.826c1.382,0,2.5,0.119,2.5,1.5
		S108.607,126.632,107.226,126.632z M131.791,142.632c-5.522,0-10-4.478-10-10s4.478-10,10-10c5.523,0,10,4.478,10,10
		S137.314,142.632,131.791,142.632z M133.791,104.535H21.833c-6.628,0-8-1.373-8-8l6-52.902c0-6.627,1.372-8,8-8h100.958
		c6.628,0,8,1.373,8,8l5,52.902C141.791,103.162,140.419,104.535,133.791,104.535z"/>
	<path fill="#D2D3D4" d="M145.625,8c0-6.627-1.373-8-8-8H91.75H63.875H18c-6.627,0-8,1.373-8,8L0,104.535v53.264
		c0,6.627,1.373,8,8,8h5.833v10.271c0,5.522,4.477,6,10,6s10-0.478,10-6v-10.271h37.792H84h37.791v10.271c0,5.522,4.478,6,10,6
		c5.523,0,10-0.478,10-6v-10.271h5.834c6.627,0,8-1.373,8-8v-54.264L145.625,8z M38.607,10.807h78.41c2.637,0,4.773,3.239,4.773,6
		s-2.137,6-4.773,6h-78.41c-2.636,0-4.774-3.239-4.774-6S35.971,10.807,38.607,10.807z M23.833,141.632c-5.523,0-10-4.478-10-10
		s4.477-10,10-10s10,4.478,10,10S29.356,141.632,23.833,141.632z M107.226,140.632H48.399c-1.381,0-2.5-0.119-2.5-1.5
		s1.119-1.5,2.5-1.5h58.826c1.382,0,2.5,0.119,2.5,1.5S108.607,140.632,107.226,140.632z M107.226,133.132H48.399
		c-1.381,0-2.5-0.119-2.5-1.5s1.119-1.5,2.5-1.5h58.826c1.382,0,2.5,0.119,2.5,1.5S108.607,133.132,107.226,133.132z
		 M107.226,125.632H48.399c-1.381,0-2.5-0.119-2.5-1.5s1.119-1.5,2.5-1.5h58.826c1.382,0,2.5,0.119,2.5,1.5
		S108.607,125.632,107.226,125.632z M131.791,141.632c-5.522,0-10-4.478-10-10s4.478-10,10-10c5.523,0,10,4.478,10,10
		S137.314,141.632,131.791,141.632z M133.791,103.535H21.833c-6.628,0-8-1.373-8-8l6-52.902c0-6.627,1.372-8,8-8h100.958
		c6.628,0,8,1.373,8,8l5,52.902C141.791,102.162,140.419,103.535,133.791,103.535z"/>
</g>
</svg>
