<?xml version="1.0" encoding="utf-8"?>
<!-- Generator: Adobe Illustrator 16.0.0, SVG Export Plug-In . SVG Version: 6.00 Build 0)  -->
<!DOCTYPE svg PUBLIC "-//W3C//DTD SVG 1.1//EN" "http://www.w3.org/Graphics/SVG/1.1/DTD/svg11.dtd">
<svg version="1.1" id="Layer_1" xmlns="http://www.w3.org/2000/svg" xmlns:xlink="http://www.w3.org/1999/xlink" x="0px" y="0px"
	 width="32px" height="64px" viewBox="0.21 0 32 64" enable-background="new 0.21 0 32 64" xml:space="preserve">
<g>
	<path fill="#777777" d="M16.21,1.5c7.996,0,14.5,6.505,14.5,14.5s-6.504,14.5-14.5,14.5c-7.994,0-14.5-6.505-14.5-14.5
		S8.216,1.5,16.21,1.5 M16.21,0c-8.836,0-16,7.164-16,16c0,8.837,7.164,16,16,16c8.838,0,16-7.163,16-16
		C32.21,7.164,25.048,0,16.21,0L16.21,0z"/>
</g>
<polyline fill="none" stroke="#777777" stroke-width="1.5" stroke-linecap="round" stroke-linejoin="round" stroke-miterlimit="10" points="
	13.668,21.779 7.866,15.976 13.622,10.221 "/>
<line fill="none" stroke="#777777" stroke-width="1.5" stroke-linecap="round" stroke-linejoin="round" stroke-miterlimit="10" x1="24.554" y1="15.976" x2="7.866" y2="15.976"/>
<g>
	<path fill="#777777" d="M16.21,1.5c7.995,0,14.5,6.505,14.5,14.5s-6.505,14.5-14.5,14.5S1.71,23.995,1.71,16S8.215,1.5,16.21,1.5
		 M16.21,0c-8.836,0-16,7.164-16,16c0,8.837,7.164,16,16,16c8.837,0,16-7.163,16-16C32.21,7.164,25.047,0,16.21,0L16.21,0z"/>
</g>
<g>
	<path fill="#FFFFFF" d="M16.21,32c-8.836,0-16,7.164-16,16c0,8.837,7.164,16,16,16c8.837,0,16-7.163,16-16
		C32.21,39.164,25.047,32,16.21,32z M24.554,48.727H9.677l4.522,4.522c0.293,0.293,0.293,0.768,0,1.061
		c-0.146,0.146-0.338,0.22-0.53,0.22s-0.384-0.073-0.53-0.22L7.34,48.511c-0.015-0.015-0.029-0.03-0.043-0.046
		c-0.096-0.112-0.154-0.245-0.173-0.384c-0.008-0.055-0.009-0.11-0.005-0.165c0.014-0.168,0.083-0.332,0.209-0.462c0,0,0,0,0,0
		c0-0.002,0.001-0.002,0.001-0.002c0.001,0,0.002-0.002,0.002-0.002c0-0.001,0-0.001,0.001-0.001c0,0,0-0.001,0.001-0.001
		c0.001,0.001,0.002-0.002,0.002-0.002l5.756-5.756c0.293-0.293,0.768-0.293,1.061,0c0.146,0.146,0.22,0.338,0.22,0.53
		s-0.073,0.384-0.22,0.53l-4.476,4.476h14.877c0.414,0,0.75,0.336,0.75,0.75S24.968,48.727,24.554,48.727z"/>
</g>
</svg>
