<?xml version="1.0" encoding="utf-8"?>
<!-- Generator: Adobe Illustrator 16.0.0, SVG Export Plug-In . SVG Version: 6.00 Build 0)  -->
<!DOCTYPE svg PUBLIC "-//W3C//DTD SVG 1.1//EN" "http://www.w3.org/Graphics/SVG/1.1/DTD/svg11.dtd">
<svg version="1.1" id="Layer_1" xmlns="http://www.w3.org/2000/svg" xmlns:xlink="http://www.w3.org/1999/xlink" x="0px" y="0px"
	 width="15.999px" height="15.999px" viewBox="0 0 15.999 15.999" enable-background="new 0 0 15.999 15.999" xml:space="preserve">
<g>
	<g>
		<path fill="#555555" d="M14.752,15.47c-0.191,0-0.371-0.074-0.505-0.208l-3.927-3.926c-1.071,0.844-2.406,1.309-3.767,1.309
			c-3.356,0-6.087-2.731-6.087-6.088c0-3.356,2.731-6.087,6.087-6.087c3.357,0,6.088,2.731,6.088,6.087
			c0,1.361-0.464,2.697-1.309,3.768l3.928,3.926c0.278,0.279,0.278,0.733,0,1.012C15.124,15.396,14.944,15.47,14.752,15.47z
			 M6.553,1.544c-2.764,0-5.012,2.248-5.012,5.012c0,2.764,2.249,5.013,5.012,5.013c2.764,0,5.013-2.249,5.013-5.013
			C11.566,3.792,9.317,1.544,6.553,1.544z"/>
		<path fill="#555555" d="M6.553,0.543c3.321,0,6.013,2.692,6.013,6.012c0,1.429-0.501,2.741-1.334,3.773l3.976,3.973
			c0.25,0.25,0.25,0.655,0,0.906c-0.126,0.125-0.291,0.187-0.455,0.187c-0.164,0-0.328-0.062-0.452-0.187l-3.974-3.974
			c-1.032,0.833-2.344,1.334-3.773,1.334c-3.32,0-6.012-2.692-6.012-6.013C0.541,3.235,3.233,0.543,6.553,0.543 M6.553,11.644
			c2.805,0,5.088-2.282,5.088-5.088c0-2.805-2.283-5.087-5.088-5.087S1.466,3.75,1.466,6.556C1.466,9.361,3.748,11.644,6.553,11.644
			 M6.553,0.394c-3.398,0-6.162,2.764-6.162,6.162s2.764,6.163,6.162,6.163c1.355,0,2.686-0.455,3.761-1.284l3.88,3.879
			c0.148,0.149,0.347,0.231,0.558,0.231s0.41-0.082,0.561-0.23c0.308-0.31,0.308-0.811,0-1.119l-3.881-3.879
			c0.829-1.075,1.284-2.406,1.284-3.762C12.716,3.158,9.951,0.394,6.553,0.394L6.553,0.394z M6.553,11.494
			c-2.723,0-4.938-2.215-4.938-4.938c0-2.722,2.215-4.937,4.938-4.937s4.938,2.215,4.938,4.937
			C11.491,9.278,9.276,11.494,6.553,11.494L6.553,11.494z"/>
	</g>
</g>
</svg>
