<?xml version="1.0" encoding="utf-8"?>
<!-- Generator: Adobe Illustrator 16.0.0, SVG Export Plug-In . SVG Version: 6.00 Build 0)  -->
<!DOCTYPE svg PUBLIC "-//W3C//DTD SVG 1.1//EN" "http://www.w3.org/Graphics/SVG/1.1/DTD/svg11.dtd">
<svg version="1.1" id="Layer_1" xmlns="http://www.w3.org/2000/svg" xmlns:xlink="http://www.w3.org/1999/xlink" x="0px" y="0px"
	 width="32px" height="64px" viewBox="0.21 0 32 64" enable-background="new 0.21 0 32 64" xml:space="preserve">
<g>
	<path fill="#777777" d="M16.21,1.5c7.994,0,14.5,6.505,14.5,14.5s-6.506,14.5-14.5,14.5c-7.996,0-14.5-6.505-14.5-14.5
		S8.214,1.5,16.21,1.5 M16.21,0c-8.838,0-16,7.164-16,16c0,8.837,7.162,16,16,16c8.836,0,16-7.163,16-16
		C32.21,7.164,25.046,0,16.21,0L16.21,0z"/>
</g>
<polyline fill="none" stroke="#777777" stroke-width="1.5" stroke-linecap="round" stroke-linejoin="round" stroke-miterlimit="10" points="
	18.751,21.779 24.554,15.976 18.798,10.221 "/>
<line fill="none" stroke="#777777" stroke-width="1.5" stroke-linecap="round" stroke-linejoin="round" stroke-miterlimit="10" x1="7.866" y1="15.976" x2="24.554" y2="15.976"/>
<g>
	<path fill="#777777" d="M16.21,1.5c7.995,0,14.5,6.505,14.5,14.5s-6.505,14.5-14.5,14.5S1.71,23.995,1.71,16S8.215,1.5,16.21,1.5
		 M16.21,0c-8.837,0-16,7.164-16,16c0,8.837,7.163,16,16,16s16-7.163,16-16C32.21,7.164,25.047,0,16.21,0L16.21,0z"/>
</g>
<g>
	<path fill="#FFFFFF" d="M0.21,48c0,8.837,7.163,16,16,16s16-7.163,16-16c0-8.836-7.163-16-16-16S0.21,39.164,0.21,48z
		 M7.116,47.977c0-0.414,0.336-0.75,0.75-0.75h14.877l-4.476-4.476c-0.146-0.146-0.22-0.338-0.22-0.53s0.073-0.384,0.22-0.53
		c0.293-0.293,0.768-0.293,1.061,0l5.756,5.756c0,0,0,0.003,0.002,0.002l0.001,0.001c0.001,0,0.001,0,0.001,0.001
		c0,0,0.001,0.002,0.002,0.002c0,0,0.001,0,0.002,0.002l0,0c0.126,0.13,0.195,0.294,0.209,0.462c0.005,0.055,0.004,0.11-0.004,0.165
		c-0.02,0.139-0.078,0.271-0.174,0.384c-0.014,0.016-0.028,0.031-0.043,0.046l-5.798,5.799c-0.146,0.146-0.338,0.22-0.53,0.22
		s-0.384-0.073-0.53-0.22c-0.293-0.293-0.293-0.768,0-1.061l4.522-4.522H7.866C7.452,48.727,7.116,48.391,7.116,47.977z"/>
</g>
</svg>
