<?xml version="1.0" encoding="utf-8"?>
<!-- Generator: Adobe Illustrator 16.0.0, SVG Export Plug-In . SVG Version: 6.00 Build 0)  -->
<!DOCTYPE svg PUBLIC "-//W3C//DTD SVG 1.1//EN" "http://www.w3.org/Graphics/SVG/1.1/DTD/svg11.dtd">
<svg version="1.1" id="Layer_1" xmlns="http://www.w3.org/2000/svg" xmlns:xlink="http://www.w3.org/1999/xlink" x="0px" y="0px"
	 width="32px" height="64px" viewBox="0 0 32 64" enable-background="new 0 0 32 64" xml:space="preserve">
<path fill="#FFFFFF" d="M8.604,17.404h20.807c0.716,0,1.3-0.584,1.3-1.3c0-0.718-0.584-1.301-1.3-1.301H8.604
	c-0.718,0-1.3,0.583-1.3,1.301C7.304,16.819,7.887,17.404,8.604,17.404z"/>
<path fill="#FFFFFF" d="M8.604,7h20.807c0.716,0,1.3-0.583,1.3-1.3c0-0.718-0.584-1.301-1.3-1.301H8.604
	c-0.718,0-1.3,0.583-1.3,1.301C7.304,6.417,7.887,7,8.604,7z"/>
<path fill="#FFFFFF" d="M8.604,27.809h20.807c0.716,0,1.3-0.584,1.3-1.3c0-0.719-0.584-1.302-1.3-1.302H8.604
	c-0.718,0-1.3,0.583-1.3,1.302C7.304,27.226,7.887,27.809,8.604,27.809z"/>
<circle fill="#FFFFFF" cx="1.93" cy="5.701" r="1.733"/>
<circle fill="#FFFFFF" cx="1.93" cy="16.104" r="1.733"/>
<circle fill="#FFFFFF" cx="1.93" cy="26.508" r="1.733"/>
<g>
	<path fill="#FFFFFF" d="M0.592,48.698c0,0.166,0.036,0.334,0.101,0.493c0.062,0.152,0.156,0.291,0.27,0.406
		c0.003,0.008,0.005,0.012,0.008,0.019l7.803,7.803c0.507,0.508,1.332,0.508,1.839,0s0.507-1.33,0-1.838l-5.582-5.586h25.471
		c0.717,0,1.301-0.584,1.301-1.304c0-0.715-0.584-1.301-1.301-1.301H5.031l5.582-5.582c0.507-0.508,0.507-1.33,0-1.836
		c-0.507-0.511-1.332-0.511-1.839,0l-7.803,7.801c-0.002,0.002-0.005,0.011-0.008,0.015c-0.114,0.114-0.208,0.254-0.27,0.405
		c-0.068,0.162-0.101,0.33-0.101,0.5l0,0C0.592,48.693,0.592,48.693,0.592,48.698z"/>
</g>
</svg>
