<?xml version="1.0" encoding="utf-8"?>
<!-- Generator: Adobe Illustrator 16.0.0, SVG Export Plug-In . SVG Version: 6.00 Build 0)  -->
<!DOCTYPE svg PUBLIC "-//W3C//DTD SVG 1.1//EN" "http://www.w3.org/Graphics/SVG/1.1/DTD/svg11.dtd">
<svg version="1.1" id="Layer_1" xmlns="http://www.w3.org/2000/svg" xmlns:xlink="http://www.w3.org/1999/xlink" x="0px" y="0px"
	 width="46px" height="32px" viewBox="0.333 -16 46 32" enable-background="new 0.333 -16 46 32" xml:space="preserve">
<g>
	<path fill="#FFFFFF" d="M0.333-0.003c0,8.836,7.164,16,16,16c8.836,0,16-7.164,16-16c0-8.837-7.164-16-16-16
		C7.498-16.003,0.333-8.84,0.333-0.003z M5.667-1.069h16.626L17.711-5.65c-0.416-0.416-0.416-1.093,0-1.509s1.094-0.416,1.51,0
		l6.4,6.4c0.004,0.004,0.004,0.008,0.008,0.014c0.094,0.096,0.17,0.209,0.223,0.334c0.055,0.131,0.082,0.27,0.082,0.408l0,0
		c0,0.002,0,0.002,0,0.004c0,0.137-0.029,0.271-0.082,0.402c-0.053,0.127-0.129,0.238-0.223,0.336
		c-0.002,0.004-0.004,0.008-0.006,0.01l-6.4,6.4c-0.416,0.416-1.092,0.416-1.51,0c-0.414-0.416-0.414-1.092,0-1.508l4.58-4.578
		H5.667C5.079,1.063,4.6,0.585,4.6-0.003C4.6-0.592,5.079-1.069,5.667-1.069z"/>
</g>
<path fill="#777777" d="M39.068,40c0,0.588-0.479,1.066-1.066,1.066H24.375l3.58,3.578c0.414,0.416,0.414,1.093,0,1.508
	c-0.418,0.416-1.094,0.416-1.51,0l-5.4-5.399c-0.002-0.002-0.004-0.006-0.006-0.011c-0.094-0.097-0.17-0.208-0.223-0.335
	c-0.053-0.131-0.082-0.267-0.082-0.403c0-0.002,0-0.002,0-0.004l0,0c0-0.139,0.027-0.277,0.082-0.407
	c0.053-0.126,0.129-0.239,0.223-0.335c0.004-0.005,0.004-0.009,0.008-0.013l5.4-5.4c0.416-0.416,1.094-0.416,1.51,0
	s0.416,1.093,0,1.509l-3.582,3.58h13.627C38.59,38.934,39.068,39.412,39.068,40z"/>
<g>
	<path fill="#777777" d="M30.334,25.5c7.996,0,14.5,6.505,14.5,14.5s-6.504,14.5-14.5,14.5c-7.994,0-14.5-6.505-14.5-14.5
		S22.34,25.5,30.334,25.5 M30.334,24c-8.836,0-16,7.164-16,16c0,8.837,7.164,16,16,16c8.838,0,16-7.163,16-16
		C46.334,31.164,39.172,24,30.334,24L30.334,24z"/>
</g>
</svg>
