<?xml version="1.0" encoding="utf-8"?>
<!-- Generator: Adobe Illustrator 16.0.0, SVG Export Plug-In . SVG Version: 6.00 Build 0)  -->
<!DOCTYPE svg PUBLIC "-//W3C//DTD SVG 1.1//EN" "http://www.w3.org/Graphics/SVG/1.1/DTD/svg11.dtd">
<svg version="1.1" id="Layer_1" xmlns="http://www.w3.org/2000/svg" xmlns:xlink="http://www.w3.org/1999/xlink" x="0px" y="0px"
	 width="40px" height="80px" viewBox="-4 -4 40 80" enable-background="new -4 -4 40 80" xml:space="preserve">
<g>
	<path fill="#2B2B2B" d="M16,0C7.164,0,0,7.164,0,16s7.164,16,16,16s16-7.164,16-16S24.836,0,16,0z M16,30C8.28,30,2,23.72,2,16
		S8.28,2,16,2c7.721,0,14,6.28,14,14S23.721,30,16,30z"/>
</g>
<g id="Layer_2">
	<g>
		<path fill="#2B2B2B" d="M12.304,12.169l9.851,4.39l-3.346,0.949l-1.079,0.306l-0.302,1.081l-0.869,3.117L12.304,12.169
			 M8.433,8.254l8.534,19.74l2.389-8.562l8.652-2.454L8.433,8.254L8.433,8.254z"/>
	</g>
	<polygon fill="#2B2B2B" points="8.433,48.254 16.967,67.994 19.355,59.432 28.008,56.978 	"/>
</g>
<g>
	<path fill="#2B2B2B" d="M16,42c7.72,0,14,6.28,14,14s-6.28,14-14,14S2,63.72,2,56S8.28,42,16,42 M16,40C7.164,40,0,47.163,0,56
		s7.164,16,16,16c8.837,0,16-7.163,16-16S24.837,40,16,40L16,40z"/>
</g>
</svg>
