<?xml version="1.0" encoding="utf-8"?>
<!-- Generator: Adobe Illustrator 16.0.0, SVG Export Plug-In . SVG Version: 6.00 Build 0)  -->
<!DOCTYPE svg PUBLIC "-//W3C//DTD SVG 1.1//EN" "http://www.w3.org/Graphics/SVG/1.1/DTD/svg11.dtd">
<svg version="1.1" id="Layer_1" xmlns="http://www.w3.org/2000/svg" xmlns:xlink="http://www.w3.org/1999/xlink" x="0px" y="0px"
	 width="40px" height="80px" viewBox="0 0 40 80" enable-background="new 0 0 40 80" xml:space="preserve">
<g>
	<g>
		<polygon fill="#FFFFFF" points="24.982,57.889 20.121,48.036 15.259,57.889 4.387,59.467 12.254,67.135 10.396,77.963 
			20.121,72.854 29.848,77.963 27.988,67.135 35.855,59.467 		"/>
	</g>
</g>
<g>
	<g>
		<g>
			<path fill="#FFFFFF" d="M20.121,9.45l3.067,6.217l0.466,0.943l1.041,0.151l6.861,0.996l-4.964,4.839l-0.754,0.734l0.179,1.037
				l1.173,6.835l-6.14-3.226l-0.93-0.489l-0.93,0.489l-6.139,3.226l1.173-6.835l0.178-1.037l-0.753-0.734l-4.964-4.839l6.861-0.996
				l1.041-0.151l0.465-0.943L20.121,9.45 M20.121,4.93l-4.862,9.852L4.387,16.361l7.867,7.668l-1.858,10.828l9.725-5.11l9.727,5.11
				l-1.859-10.828l7.867-7.668l-10.873-1.579L20.121,4.93L20.121,4.93z"/>
		</g>
	</g>
</g>
</svg>
