<?xml version="1.0" encoding="utf-8"?>
<!-- Generator: Adobe Illustrator 16.0.0, SVG Export Plug-In . SVG Version: 6.00 Build 0)  -->
<!DOCTYPE svg PUBLIC "-//W3C//DTD SVG 1.1//EN" "http://www.w3.org/Graphics/SVG/1.1/DTD/svg11.dtd">
<svg version="1.1" id="Layer_1" xmlns="http://www.w3.org/2000/svg" xmlns:xlink="http://www.w3.org/1999/xlink" x="0px" y="0px"
	 width="27px" height="40px" viewBox="0 0 27 40" enable-background="new 0 0 27 40" xml:space="preserve">
<g id="Layer_2" display="none">
	<g display="inline">
		<path fill="#006ABA" d="M13.472,39.666C11.252,39.665,0.25,20.661,0.25,13.471c0-7.29,5.931-13.221,13.221-13.221
			c7.291,0,13.22,5.931,13.22,13.221C26.691,21.352,15.527,39.666,13.472,39.666L13.472,39.666z"/>
		<path fill="#009EED" d="M13.471,0.5c7.152,0,12.97,5.819,12.97,12.971c0,3.783-2.945,10.63-5.703,15.777
			c-3.555,6.635-6.504,10.168-7.266,10.168c-0.725-0.036-3.719-3.699-7.234-10.227C3.464,24.041,0.5,17.207,0.5,13.471
			C0.5,6.319,6.319,0.5,13.471,0.5 M13.471,0C6.031,0,0,6.031,0,13.471s11.051,26.444,13.471,26.445
			c2.593,0.001,13.47-19.004,13.47-26.445C26.941,6.031,20.911,0,13.471,0L13.471,0z"/>
	</g>
	<g>
		<path display="inline" fill="#EFEFEF" d="M13.5,0.5c7.167,0,13,5.832,13,13c0,3.791-2.952,10.652-5.716,15.811
			C17.223,35.959,14.266,39.5,13.501,39.5c-0.727-0.036-3.726-3.705-7.25-10.246c-2.779-5.161-5.75-12.011-5.75-15.754
			C0.501,6.332,6.333,0.5,13.5,0.5 M13.5,0C6.044,0,0,6.044,0,13.5S11.074,40,13.5,40C16.1,40.001,27,20.956,27,13.5
			S20.956,0,13.5,0L13.5,0z"/>
	</g>
	<path display="inline" fill="#FFFFFF" d="M22.344,13.593c0,4.839-3.906,8.755-8.745,8.755c-4.839,0-8.755-3.917-8.755-8.755
		c0-4.838,3.916-8.754,8.755-8.754C18.438,4.839,22.344,8.754,22.344,13.593z"/>
	<g id="Layer_3" display="inline">
		<polygon points="17.009,9.248 14.49,13.499 16.927,17.751 9.99,13.486 		"/>
	</g>
</g>
<g id="Layer_1_1_" display="none">
</g>
<g id="_x37_p7joE_1_" display="none">
	
		<image display="inline" overflow="visible" width="872" height="828" id="_x37_p7joE_2_" xlink:href="10CDFB9CA62A29E4.jpg"  transform="matrix(0.5 0 0 0.5 -246.5 -84.6436)">
	</image>
</g>
<g>
	<path fill="#333333" d="M10,36.471c0-1.934,1.567-3.503,3.501-3.503c1.93,0,3.499,1.569,3.499,3.503
		c0,1.929-1.568,3.498-3.499,3.498C11.567,39.969,10,38.399,10,36.471z"/>
</g>
<path fill="#777777" d="M12.468,36.28V20.567h2V36.28c0,0.553-0.447,1-1,1C12.916,37.28,12.468,36.833,12.468,36.28z"/>
<circle fill="none" stroke="#777777" stroke-miterlimit="10" cx="13.47" cy="11.423" r="10.736"/>
<g>
	<path fill="#777777" d="M12.468,36.28V20.567h2V36.28c0,0.553-0.447,1-1,1C12.916,37.28,12.468,36.833,12.468,36.28z"/>
</g>
<circle fill="#2839DB" cx="13.47" cy="11.423" r="10.736"/>
<path fill="#EA4832" d="M23.535,15.165c-0.261,0.702-0.594,1.37-0.989,1.994c-1.599,2.526-4.225,4.339-7.29,4.852
	c-0.58,0.098-1.177,0.148-1.785,0.148c-0.586,0-1.161-0.047-1.721-0.138c-3.094-0.499-5.745-2.318-7.356-4.863
	c-0.396-0.625-0.729-1.294-0.991-1.998L23.535,15.165z"/>
</svg>
