<?xml version="1.0" encoding="utf-8"?>
<!-- Generator: Adobe Illustrator 16.0.0, SVG Export Plug-In . SVG Version: 6.00 Build 0)  -->
<!DOCTYPE svg PUBLIC "-//W3C//DTD SVG 1.1//EN" "http://www.w3.org/Graphics/SVG/1.1/DTD/svg11.dtd">
<svg version="1.1" id="Layer_1" xmlns="http://www.w3.org/2000/svg" xmlns:xlink="http://www.w3.org/1999/xlink" x="0px" y="0px"
	 width="46px" height="32px" viewBox="0.333 -16 46 32" enable-background="new 0.333 -16 46 32" xml:space="preserve">
<g>
	<path fill="#380404" d="M0,33c0,8.836,7.164,16,16,16s16-7.164,16-16c0-8.837-7.164-16-16-16S0,24.163,0,33z M5.333,31.934h16.626
		l-4.581-4.581c-0.416-0.416-0.416-1.093,0-1.509s1.093-0.416,1.509,0l6.4,6.4c0.004,0.004,0.004,0.008,0.008,0.014
		c0.094,0.096,0.171,0.209,0.223,0.334C25.572,32.723,25.6,32.861,25.6,33l0,0c0,0.002,0,0.002,0,0.004
		c0,0.137-0.029,0.271-0.082,0.402c-0.052,0.127-0.129,0.238-0.223,0.336c-0.002,0.004-0.004,0.008-0.006,0.01l-6.4,6.4
		c-0.416,0.416-1.092,0.416-1.509,0c-0.415-0.416-0.415-1.092,0-1.508l4.579-4.578H5.333c-0.588,0-1.066-0.479-1.066-1.066
		C4.267,32.411,4.745,31.934,5.333,31.934z"/>
</g>
<path fill="#777777" d="M8.766-1.066h13.626l-3.581-3.581c-0.416-0.416-0.416-1.092,0-1.508s1.093-0.416,1.509,0l5.4,5.4
	c0.004,0.004,0.004,0.008,0.008,0.013c0.094,0.096,0.171,0.209,0.223,0.335c0.055,0.13,0.082,0.269,0.082,0.407l0,0
	c0,0.002,0,0.002,0,0.004c0,0.137-0.029,0.272-0.082,0.403c-0.052,0.127-0.129,0.238-0.223,0.335
	c-0.002,0.005-0.004,0.009-0.006,0.011l-5.4,5.399c-0.416,0.416-1.092,0.416-1.509,0c-0.415-0.415-0.415-1.092,0-1.508l3.579-3.578
	H8.766C8.178,1.066,7.699,0.588,7.699,0C7.699-0.588,8.178-1.066,8.766-1.066z"/>
<g>
	<path fill="#777777" d="M16.433-14.5c7.995,0,14.5,6.505,14.5,14.5s-6.505,14.5-14.5,14.5S1.933,7.995,1.933,0
		S8.438-14.5,16.433-14.5 M16.433-16c-8.837,0-16,7.164-16,16c0,8.837,7.163,16,16,16c8.836,0,16-7.163,16-16
		C32.433-8.836,25.269-16,16.433-16L16.433-16z"/>
</g>
</svg>
