<?xml version="1.0" encoding="utf-8"?>
<!-- Generator: Adobe Illustrator 16.0.0, SVG Export Plug-In . SVG Version: 6.00 Build 0)  -->
<!DOCTYPE svg PUBLIC "-//W3C//DTD SVG 1.1//EN" "http://www.w3.org/Graphics/SVG/1.1/DTD/svg11.dtd">
<svg version="1.1" id="Layer_1" xmlns="http://www.w3.org/2000/svg" xmlns:xlink="http://www.w3.org/1999/xlink" x="0px" y="0px"
	 width="16px" height="16px" viewBox="0 0 16 16" enable-background="new 0 0 16 16" xml:space="preserve">
<path fill="#555555" d="M4.679,8.664h10.625c0.367,0,0.664-0.297,0.664-0.664c0-0.365-0.297-0.664-0.664-0.664H4.679
	C4.313,7.335,4.015,7.634,4.015,8C4.015,8.367,4.313,8.664,4.679,8.664z"/>
<path fill="#555555" d="M4.679,3.351h10.625c0.367,0,0.664-0.297,0.664-0.664c0-0.366-0.297-0.664-0.664-0.664H4.679
	c-0.366,0-0.664,0.298-0.664,0.664C4.015,3.054,4.313,3.351,4.679,3.351z"/>
<path fill="#555555" d="M4.679,13.977h10.625c0.367,0,0.664-0.297,0.664-0.664c0-0.365-0.297-0.664-0.664-0.664H4.679
	c-0.366,0-0.664,0.299-0.664,0.664C4.015,13.68,4.313,13.977,4.679,13.977z"/>
<circle fill="#555555" cx="0.88" cy="2.687" r="0.85"/>
<circle fill="#555555" cx="0.88" cy="8" r="0.85"/>
<circle fill="#555555" cx="0.88" cy="13.312" r="0.85"/>
</svg>
