<?xml version="1.0" encoding="utf-8"?>
<!-- Generator: Adobe Illustrator 16.0.0, SVG Export Plug-In . SVG Version: 6.00 Build 0)  -->
<!DOCTYPE svg PUBLIC "-//W3C//DTD SVG 1.1//EN" "http://www.w3.org/Graphics/SVG/1.1/DTD/svg11.dtd">
<svg version="1.1" id="Layer_1" xmlns="http://www.w3.org/2000/svg" xmlns:xlink="http://www.w3.org/1999/xlink" x="0px" y="0px"
	 width="40px" height="80px" viewBox="0 0 40 80" enable-background="new 0 0 40 80" xml:space="preserve">
<path fill="#FFFFFF" d="M12.977,21.651H34.31c0.734,0,1.333-0.598,1.333-1.333c0-0.735-0.599-1.333-1.333-1.333H12.977
	c-0.736,0-1.333,0.598-1.333,1.333C11.644,21.053,12.242,21.651,12.977,21.651z"/>
<path fill="#FFFFFF" d="M12.977,10.985H34.31c0.734,0,1.333-0.598,1.333-1.333c0-0.736-0.599-1.333-1.333-1.333H12.977
	c-0.736,0-1.333,0.598-1.333,1.333C11.644,10.387,12.242,10.985,12.977,10.985z"/>
<path fill="#FFFFFF" d="M12.977,32.318H34.31c0.734,0,1.333-0.598,1.333-1.333c0-0.736-0.599-1.334-1.333-1.334H12.977
	c-0.736,0-1.333,0.598-1.333,1.334C11.644,31.721,12.242,32.318,12.977,32.318z"/>
<circle fill="#FFFFFF" cx="6.135" cy="9.652" r="1.777"/>
<circle fill="#FFFFFF" cx="6.135" cy="20.318" r="1.777"/>
<circle fill="#FFFFFF" cx="6.135" cy="30.985" r="1.777"/>
<g>
	<path fill="#FFFFFF" d="M4,63.004c0,0.17,0.037,0.34,0.104,0.504c0.064,0.156,0.16,0.298,0.277,0.418
		c0.003,0.007,0.005,0.012,0.008,0.017l8,8c0.52,0.521,1.366,0.521,1.886,0s0.52-1.364,0-1.885l-5.723-5.726h26.115
		c0.735,0,1.333-0.599,1.333-1.334s-0.598-1.334-1.333-1.334H8.552l5.723-5.723c0.52-0.52,0.52-1.365,0-1.885s-1.366-0.52-1.886,0
		l-8,8c-0.002,0.002-0.005,0.01-0.008,0.014c-0.117,0.12-0.213,0.262-0.277,0.418C4.034,62.652,4,62.825,4,62.999l0,0
		C4,63,4,63,4,63.004z"/>
</g>
</svg>
