<?xml version="1.0" encoding="utf-8"?>
<!-- Generator: Adobe Illustrator 16.0.0, SVG Export Plug-In . SVG Version: 6.00 Build 0)  -->
<!DOCTYPE svg PUBLIC "-//W3C//DTD SVG 1.1//EN" "http://www.w3.org/Graphics/SVG/1.1/DTD/svg11.dtd">
<svg version="1.1" xmlns="http://www.w3.org/2000/svg" xmlns:xlink="http://www.w3.org/1999/xlink" x="0px" y="0px" width="32px"
	 height="64px" viewBox="0 0 32 64" enable-background="new 0 0 32 64" xml:space="preserve">
<g id="Layer_3">
	<g>
		<path fill="#777777" d="M16.252,6c5.514,0,10,4.486,10,10s-4.486,10-10,10s-9.999-4.486-9.999-10S10.738,6,16.252,6 M16.252,4
			C9.624,4,4.253,9.373,4.253,16s5.371,12,11.999,12c6.627,0,12-5.373,12-12S22.879,4,16.252,4L16.252,4z"/>
	</g>
	<path fill="#777777" stroke="#777777" stroke-width="0.5" stroke-miterlimit="10" d="M14.388,21.084c0.191,0,0.384-0.073,0.53-0.22
		c0.293-0.292,0.293-0.768,0-1.061l-3.07-3.072h10.706c0.414,0,0.75-0.336,0.75-0.75s-0.336-0.75-0.75-0.75H11.849l3.035-3.036
		c0.146-0.146,0.22-0.338,0.22-0.53s-0.073-0.384-0.22-0.53c-0.294-0.294-0.768-0.292-1.061,0l-4.315,4.316
		c-0.001,0-0.001,0.001-0.002,0.001v0c-0.001,0-0.001,0.001-0.001,0.001c0,0-0.001,0-0.001,0c0,0.001-0.002,0.002-0.002,0.002
		c0,0,0,0-0.001,0c-0.128,0.131-0.198,0.298-0.211,0.468c-0.004,0.052-0.002,0.104,0.005,0.156c0.019,0.14,0.077,0.276,0.176,0.39
		c0,0,0,0,0.001,0.001c0.013,0.015,0.025,0.029,0.039,0.042l4.347,4.349C14.004,21.011,14.195,21.084,14.388,21.084z"/>
</g>
<g id="Layer_4">
	<g>
		<path fill="#FFFFFF" d="M4.253,48.133c0,6.627,5.371,12,11.999,12c6.627,0,12-5.373,12-12c0-6.628-5.373-12-12-12
			C9.624,36.133,4.253,41.505,4.253,48.133z M9.041,47.912c0.015-0.199,0.089-0.389,0.211-0.544v-0.061l0.065-0.033l0.034-0.067
			h0.052l4.243-4.244c0.378-0.378,1.037-0.378,1.414,0c0.188,0.188,0.293,0.44,0.293,0.707s-0.104,0.519-0.293,0.707l-2.608,2.609
			h10.102c0.552,0,1,0.448,1,1s-0.448,1-1,1H12.451l2.644,2.646c0.188,0.188,0.293,0.44,0.293,0.707s-0.104,0.519-0.293,0.707
			s-0.44,0.293-0.707,0.293s-0.519-0.104-0.707-0.293l-4.34-4.343l-0.059-0.062c-0.128-0.147-0.209-0.327-0.235-0.521
			C9.038,48.049,9.036,47.979,9.041,47.912z"/>
	</g>
</g>
</svg>
