<?xml version="1.0" encoding="utf-8"?>
<!-- Generator: Adobe Illustrator 16.0.0, SVG Export Plug-In . SVG Version: 6.00 Build 0)  -->
<!DOCTYPE svg PUBLIC "-//W3C//DTD SVG 1.1//EN" "http://www.w3.org/Graphics/SVG/1.1/DTD/svg11.dtd">
<svg version="1.1" id="Layer_1" xmlns="http://www.w3.org/2000/svg" xmlns:xlink="http://www.w3.org/1999/xlink" x="0px" y="0px"
	 width="40px" height="80.001px" viewBox="0 3 40 80.001" enable-background="new 0 3 40 80.001" xml:space="preserve">
<g>
	<path fill="#FFFFFF" d="M13.333,24.027h21.333c0.735,0,1.333-0.598,1.333-1.333s-0.598-1.333-1.333-1.333H13.333
		c-0.736,0-1.333,0.598-1.333,1.333S12.598,24.027,13.333,24.027z M13.333,13.361h21.333c0.735,0,1.333-0.598,1.333-1.333
		c0-0.736-0.598-1.333-1.333-1.333H13.333c-0.736,0-1.333,0.598-1.333,1.333C12,12.763,12.598,13.361,13.333,13.361z M13.333,34.694
		h21.333c0.735,0,1.333-0.598,1.333-1.333c0-0.736-0.598-1.334-1.333-1.334H13.333c-0.736,0-1.333,0.598-1.333,1.334
		C12,34.097,12.598,34.694,13.333,34.694z M4,12.028c0,0.736,0.597,1.333,1.333,1.333s1.333-0.597,1.333-1.333
		s-0.597-1.333-1.333-1.333S4,11.292,4,12.028z M4,22.694c0,0.737,0.597,1.333,1.333,1.333s1.333-0.596,1.333-1.333
		s-0.597-1.333-1.333-1.333S4,21.957,4,22.694z M4,33.361c0,0.736,0.597,1.333,1.333,1.333s1.333-0.597,1.333-1.333
		c0-0.737-0.597-1.334-1.333-1.334S4,32.624,4,33.361z"/>
</g>
<g>
	<path fill="#FFFFFF" d="M4,63.004c0,0.171,0.037,0.341,0.104,0.504c0.064,0.157,0.16,0.298,0.277,0.418
		c0.003,0.007,0.005,0.012,0.008,0.017l8,8c0.52,0.52,1.366,0.52,1.886,0s0.52-1.365,0-1.885l-5.723-5.726h26.115
		c0.735,0,1.333-0.598,1.333-1.333c0-0.736-0.598-1.334-1.333-1.334H8.552l5.723-5.723c0.52-0.52,0.52-1.365,0-1.885
		s-1.366-0.52-1.886,0l-8,8c-0.002,0.002-0.005,0.01-0.008,0.014c-0.117,0.12-0.213,0.261-0.277,0.418
		C4.034,62.652,4,62.825,4,62.999l0,0C4,63.001,4,63.001,4,63.004z"/>
</g>
</svg>
