<?xml version="1.0" encoding="utf-8"?>
<!-- Generator: Adobe Illustrator 16.0.0, SVG Export Plug-In . SVG Version: 6.00 Build 0)  -->
<!DOCTYPE svg PUBLIC "-//W3C//DTD SVG 1.1//EN" "http://www.w3.org/Graphics/SVG/1.1/DTD/svg11.dtd">
<svg version="1.1" xmlns="http://www.w3.org/2000/svg" xmlns:xlink="http://www.w3.org/1999/xlink" x="0px" y="0px" width="27px"
	 height="40px" viewBox="0 0 27 40" enable-background="new 0 0 27 40" xml:space="preserve">
<g id="Layer_2">
	<path fill="#006ABA" d="M27,13.5c0,7.456-10.9,26.501-13.5,26.5c-2.425-0.001-13.5-19.044-13.5-26.5C0.001,6.044,6.045,0,13.5,0
		S27,6.044,27,13.5z"/>
	<path fill="#FFFFFF" d="M22.5,13.5c0,4.977-4.019,9.004-8.995,9.004c-4.978,0-9.005-4.027-9.005-9.004s4.027-9.004,9.005-9.004
		C18.481,4.495,22.5,8.522,22.5,13.5z"/>
	<g id="Layer_3">
		<polygon points="17.009,9.248 14.49,13.498 16.927,17.75 9.99,13.485 		"/>
	</g>
</g>
<g id="Layer_1" display="none">
	
		<image display="inline" overflow="visible" width="27" height="40" xlink:href="icon_n.png"  transform="matrix(1 0 0 1 9.765625e-04 4.882812e-04)">
	</image>
</g>
</svg>
