<?xml version="1.0" encoding="utf-8"?>
<!-- Generator: Adobe Illustrator 16.0.0, SVG Export Plug-In . SVG Version: 6.00 Build 0)  -->
<!DOCTYPE svg PUBLIC "-//W3C//DTD SVG 1.1//EN" "http://www.w3.org/Graphics/SVG/1.1/DTD/svg11.dtd">
<svg version="1.1" xmlns="http://www.w3.org/2000/svg" xmlns:xlink="http://www.w3.org/1999/xlink" x="0px" y="0px" width="27px"
	 height="40px" viewBox="0 0 27 40" enable-background="new 0 0 27 40" xml:space="preserve">
<g id="Layer_2">
	<g>
		<path fill="#006ABA" d="M13.472,39.666C11.252,39.665,0.25,20.661,0.25,13.471c0-7.29,5.931-13.221,13.221-13.221
			c7.291,0,13.221,5.931,13.221,13.221C26.692,21.351,15.527,39.666,13.472,39.666L13.472,39.666z"/>
		<path fill="#009EED" d="M13.471,0.5c7.152,0,12.971,5.819,12.971,12.971c0,3.783-2.946,10.63-5.703,15.777
			c-3.555,6.635-6.505,10.168-7.267,10.168c-0.725-0.036-3.719-3.699-7.234-10.226C3.464,24.041,0.5,17.207,0.5,13.471
			C0.5,6.319,6.319,0.5,13.471,0.5 M13.471,0C6.031,0,0,6.031,0,13.471c0,7.44,11.051,26.444,13.471,26.445
			c2.594,0.001,13.471-19.004,13.471-26.445C26.942,6.031,20.911,0,13.471,0L13.471,0z"/>
	</g>
	<g display="none">
		<path display="inline" fill="#EFEFEF" d="M13.5,0.5c7.167,0,13,5.832,13,13c0,3.791-2.952,10.653-5.716,15.81
			c-3.562,6.649-6.519,10.19-7.283,10.19c-0.727-0.036-3.726-3.705-7.25-10.246C3.472,24.093,0.501,17.243,0.501,13.5
			C0.501,6.332,6.333,0.5,13.5,0.5 M13.5,0c-7.456,0-13.5,6.044-13.5,13.5c0,7.456,11.074,26.5,13.5,26.5
			C16.1,40.001,27,20.956,27,13.5C27,6.044,20.956,0,13.5,0L13.5,0z"/>
	</g>
	<path fill="#FFFFFF" d="M22.344,13.593c0,4.839-3.907,8.754-8.745,8.754c-4.839,0-8.755-3.916-8.755-8.754s3.916-8.754,8.755-8.754
		C18.437,4.839,22.344,8.754,22.344,13.593z"/>
	<g id="Layer_3">
		<polygon points="9.99,17.751 12.508,13.5 10.072,9.248 17.009,13.514 		"/>
	</g>
</g>
<g id="Layer_1" display="none">
	
		<image display="inline" overflow="visible" width="27" height="40" xlink:href="icon_n.png"  transform="matrix(1 0 0 1 9.765625e-04 4.882812e-04)">
	</image>
</g>
</svg>
